<mxfile host="Electron" agent="Mozilla/5.0 (Windows NT 10.0; Win64; x64) AppleWebKit/537.36 (KHTML, like Gecko) draw.io/28.0.6 Chrome/138.0.7204.100 Electron/37.2.3 Safari/537.36" version="28.0.6">
  <diagram name="Page-1" id="aZwbVKhbYctN0V9GMIKr">
    <mxGraphModel dx="2505" dy="974" grid="1" gridSize="10" guides="1" tooltips="1" connect="1" arrows="1" fold="1" page="1" pageScale="1" pageWidth="827" pageHeight="1169" math="0" shadow="0">
      <root>
        <mxCell id="0" />
        <mxCell id="1" parent="0" />
        <mxCell id="deEBS5y4V0Ay9wddRl7g-1" value="Midi Controller 1" style="rounded=0;whiteSpace=wrap;html=1;fillColor=#dae8fc;strokeColor=#6c8ebf;shadow=1;glass=0;" vertex="1" parent="1">
          <mxGeometry x="-100" y="210" width="120" height="60" as="geometry" />
        </mxCell>
        <mxCell id="deEBS5y4V0Ay9wddRl7g-2" value="Midi Controller 2" style="rounded=0;whiteSpace=wrap;html=1;fillColor=#dae8fc;strokeColor=#6c8ebf;shadow=1;glass=0;" vertex="1" parent="1">
          <mxGeometry x="-100" y="290" width="120" height="60" as="geometry" />
        </mxCell>
        <mxCell id="deEBS5y4V0Ay9wddRl7g-3" value="Midi Controller N" style="rounded=0;whiteSpace=wrap;html=1;fillColor=#dae8fc;strokeColor=#6c8ebf;shadow=1;glass=0;" vertex="1" parent="1">
          <mxGeometry x="-100" y="420" width="120" height="60" as="geometry" />
        </mxCell>
        <mxCell id="deEBS5y4V0Ay9wddRl7g-4" value="DAW" style="rounded=0;whiteSpace=wrap;html=1;fillColor=#fff2cc;strokeColor=#d6b656;shadow=1;glass=0;" vertex="1" parent="1">
          <mxGeometry x="760" y="160" width="120" height="520" as="geometry" />
        </mxCell>
        <mxCell id="deEBS5y4V0Ay9wddRl7g-26" style="edgeStyle=orthogonalEdgeStyle;rounded=0;orthogonalLoop=1;jettySize=auto;html=1;entryX=0.5;entryY=0;entryDx=0;entryDy=0;" edge="1" parent="1" source="deEBS5y4V0Ay9wddRl7g-5" target="deEBS5y4V0Ay9wddRl7g-16">
          <mxGeometry relative="1" as="geometry">
            <Array as="points">
              <mxPoint x="520" y="120" />
              <mxPoint x="260" y="120" />
            </Array>
          </mxGeometry>
        </mxCell>
        <mxCell id="deEBS5y4V0Ay9wddRl7g-27" value="Catch any controller touched on the current device" style="edgeLabel;html=1;align=center;verticalAlign=middle;resizable=0;points=[];spacingTop=-27;" vertex="1" connectable="0" parent="deEBS5y4V0Ay9wddRl7g-26">
          <mxGeometry x="0.0225" y="-2" relative="1" as="geometry">
            <mxPoint as="offset" />
          </mxGeometry>
        </mxCell>
        <mxCell id="deEBS5y4V0Ay9wddRl7g-5" value="Midi Device 1" style="rounded=0;whiteSpace=wrap;html=1;fillColor=#d5e8d4;strokeColor=#82b366;shadow=1;glass=0;" vertex="1" parent="1">
          <mxGeometry x="460" y="160" width="120" height="60" as="geometry" />
        </mxCell>
        <mxCell id="deEBS5y4V0Ay9wddRl7g-6" value="Current&lt;br&gt;Midi Device 2" style="rounded=0;whiteSpace=wrap;html=1;fillColor=#d5e8d4;strokeColor=#B30000;shadow=1;glass=0;strokeWidth=2;" vertex="1" parent="1">
          <mxGeometry x="460" y="260" width="120" height="60" as="geometry" />
        </mxCell>
        <mxCell id="deEBS5y4V0Ay9wddRl7g-7" value="Midi Device 3" style="rounded=0;whiteSpace=wrap;html=1;fillColor=#d5e8d4;strokeColor=#82b366;shadow=1;glass=0;" vertex="1" parent="1">
          <mxGeometry x="460" y="360" width="120" height="60" as="geometry" />
        </mxCell>
        <mxCell id="deEBS5y4V0Ay9wddRl7g-8" value="Midi Device N" style="rounded=0;whiteSpace=wrap;html=1;fillColor=#d5e8d4;strokeColor=#82b366;shadow=1;glass=0;" vertex="1" parent="1">
          <mxGeometry x="460" y="500" width="120" height="60" as="geometry" />
        </mxCell>
        <mxCell id="deEBS5y4V0Ay9wddRl7g-9" value="..." style="text;html=1;align=center;verticalAlign=middle;whiteSpace=wrap;rounded=0;fontStyle=1;fontSize=31;" vertex="1" parent="1">
          <mxGeometry x="490" y="440" width="60" height="30" as="geometry" />
        </mxCell>
        <mxCell id="deEBS5y4V0Ay9wddRl7g-10" value="..." style="text;html=1;align=center;verticalAlign=middle;whiteSpace=wrap;rounded=0;fontStyle=1;fontSize=31;" vertex="1" parent="1">
          <mxGeometry x="-70" y="370" width="60" height="30" as="geometry" />
        </mxCell>
        <mxCell id="deEBS5y4V0Ay9wddRl7g-11" value="" style="endArrow=classic;html=1;rounded=0;exitX=-0.004;exitY=0.058;exitDx=0;exitDy=0;exitPerimeter=0;entryX=1;entryY=0.5;entryDx=0;entryDy=0;" edge="1" parent="1" source="deEBS5y4V0Ay9wddRl7g-4" target="deEBS5y4V0Ay9wddRl7g-5">
          <mxGeometry width="50" height="50" relative="1" as="geometry">
            <mxPoint x="690" y="190.17999999999995" as="sourcePoint" />
            <mxPoint x="491.44" y="190" as="targetPoint" />
          </mxGeometry>
        </mxCell>
        <mxCell id="deEBS5y4V0Ay9wddRl7g-29" value="Playback" style="edgeLabel;html=1;align=center;verticalAlign=middle;resizable=0;points=[];spacingTop=-20;" vertex="1" connectable="0" parent="deEBS5y4V0Ay9wddRl7g-11">
          <mxGeometry x="0.0504" y="1" relative="1" as="geometry">
            <mxPoint as="offset" />
          </mxGeometry>
        </mxCell>
        <mxCell id="deEBS5y4V0Ay9wddRl7g-12" value="" style="endArrow=classic;html=1;rounded=0;exitX=0;exitY=0.25;exitDx=0;exitDy=0;entryX=1;entryY=0.5;entryDx=0;entryDy=0;" edge="1" parent="1" source="deEBS5y4V0Ay9wddRl7g-4" target="deEBS5y4V0Ay9wddRl7g-6">
          <mxGeometry width="50" height="50" relative="1" as="geometry">
            <mxPoint x="690" y="289.76" as="sourcePoint" />
            <mxPoint x="580" y="290" as="targetPoint" />
          </mxGeometry>
        </mxCell>
        <mxCell id="deEBS5y4V0Ay9wddRl7g-31" value="Playback" style="edgeLabel;html=1;align=center;verticalAlign=middle;resizable=0;points=[];spacingTop=-20;" vertex="1" connectable="0" parent="deEBS5y4V0Ay9wddRl7g-12">
          <mxGeometry x="-0.0212" y="1" relative="1" as="geometry">
            <mxPoint as="offset" />
          </mxGeometry>
        </mxCell>
        <mxCell id="deEBS5y4V0Ay9wddRl7g-13" value="" style="endArrow=classic;html=1;rounded=0;exitX=-0.007;exitY=0.444;exitDx=0;exitDy=0;exitPerimeter=0;" edge="1" parent="1" source="deEBS5y4V0Ay9wddRl7g-4" target="deEBS5y4V0Ay9wddRl7g-7">
          <mxGeometry width="50" height="50" relative="1" as="geometry">
            <mxPoint x="690" y="389.76" as="sourcePoint" />
            <mxPoint x="480" y="389.76" as="targetPoint" />
          </mxGeometry>
        </mxCell>
        <mxCell id="deEBS5y4V0Ay9wddRl7g-32" value="Playback" style="edgeLabel;html=1;align=center;verticalAlign=middle;resizable=0;points=[];spacingTop=-20;" vertex="1" connectable="0" parent="deEBS5y4V0Ay9wddRl7g-13">
          <mxGeometry x="0.0242" relative="1" as="geometry">
            <mxPoint as="offset" />
          </mxGeometry>
        </mxCell>
        <mxCell id="deEBS5y4V0Ay9wddRl7g-14" value="" style="endArrow=classic;html=1;rounded=0;exitX=-0.007;exitY=0.713;exitDx=0;exitDy=0;exitPerimeter=0;entryX=1;entryY=0.5;entryDx=0;entryDy=0;" edge="1" parent="1" source="deEBS5y4V0Ay9wddRl7g-4" target="deEBS5y4V0Ay9wddRl7g-8">
          <mxGeometry width="50" height="50" relative="1" as="geometry">
            <mxPoint x="690" y="529.76" as="sourcePoint" />
            <mxPoint x="580" y="530" as="targetPoint" />
          </mxGeometry>
        </mxCell>
        <mxCell id="deEBS5y4V0Ay9wddRl7g-33" value="Playback" style="edgeLabel;html=1;align=center;verticalAlign=middle;resizable=0;points=[];spacingTop=-20;" vertex="1" connectable="0" parent="deEBS5y4V0Ay9wddRl7g-14">
          <mxGeometry x="-0.0061" relative="1" as="geometry">
            <mxPoint as="offset" />
          </mxGeometry>
        </mxCell>
        <mxCell id="deEBS5y4V0Ay9wddRl7g-16" value="MIDI&lt;div&gt;Router&lt;/div&gt;" style="rounded=0;whiteSpace=wrap;html=1;fillColor=#e1d5e7;strokeColor=#9673a6;shadow=1;glass=0;" vertex="1" parent="1">
          <mxGeometry x="200" y="160" width="120" height="410" as="geometry" />
        </mxCell>
        <mxCell id="deEBS5y4V0Ay9wddRl7g-18" value="" style="endArrow=classic;html=1;rounded=0;exitX=1;exitY=0.5;exitDx=0;exitDy=0;entryX=0.004;entryY=0.195;entryDx=0;entryDy=0;entryPerimeter=0;" edge="1" parent="1" source="deEBS5y4V0Ay9wddRl7g-1" target="deEBS5y4V0Ay9wddRl7g-16">
          <mxGeometry width="50" height="50" relative="1" as="geometry">
            <mxPoint x="260" y="340" as="sourcePoint" />
            <mxPoint x="310" y="290" as="targetPoint" />
          </mxGeometry>
        </mxCell>
        <mxCell id="deEBS5y4V0Ay9wddRl7g-34" value="Live performance" style="edgeLabel;html=1;align=center;verticalAlign=middle;resizable=0;points=[];spacingTop=-17;" vertex="1" connectable="0" parent="deEBS5y4V0Ay9wddRl7g-18">
          <mxGeometry x="-0.0919" relative="1" as="geometry">
            <mxPoint as="offset" />
          </mxGeometry>
        </mxCell>
        <mxCell id="deEBS5y4V0Ay9wddRl7g-19" value="" style="endArrow=classic;html=1;rounded=0;exitX=1;exitY=0.5;exitDx=0;exitDy=0;entryX=0.004;entryY=0.195;entryDx=0;entryDy=0;entryPerimeter=0;" edge="1" parent="1" source="deEBS5y4V0Ay9wddRl7g-2">
          <mxGeometry width="50" height="50" relative="1" as="geometry">
            <mxPoint x="130" y="320" as="sourcePoint" />
            <mxPoint x="200" y="320" as="targetPoint" />
          </mxGeometry>
        </mxCell>
        <mxCell id="deEBS5y4V0Ay9wddRl7g-35" value="Live performance" style="edgeLabel;html=1;align=center;verticalAlign=middle;resizable=0;points=[];spacingTop=-17;" vertex="1" connectable="0" parent="deEBS5y4V0Ay9wddRl7g-19">
          <mxGeometry x="-0.0278" relative="1" as="geometry">
            <mxPoint as="offset" />
          </mxGeometry>
        </mxCell>
        <mxCell id="deEBS5y4V0Ay9wddRl7g-20" value="" style="endArrow=classic;html=1;rounded=0;exitX=1;exitY=0.5;exitDx=0;exitDy=0;entryX=0.004;entryY=0.195;entryDx=0;entryDy=0;entryPerimeter=0;" edge="1" parent="1" source="deEBS5y4V0Ay9wddRl7g-3">
          <mxGeometry width="50" height="50" relative="1" as="geometry">
            <mxPoint x="130" y="449.76" as="sourcePoint" />
            <mxPoint x="200" y="449.76" as="targetPoint" />
          </mxGeometry>
        </mxCell>
        <mxCell id="deEBS5y4V0Ay9wddRl7g-36" value="Live performance" style="edgeLabel;html=1;align=center;verticalAlign=middle;resizable=0;points=[];spacingTop=-17;" vertex="1" connectable="0" parent="deEBS5y4V0Ay9wddRl7g-20">
          <mxGeometry x="-0.0648" y="2" relative="1" as="geometry">
            <mxPoint as="offset" />
          </mxGeometry>
        </mxCell>
        <mxCell id="deEBS5y4V0Ay9wddRl7g-21" value="" style="endArrow=classic;html=1;rounded=0;exitX=1;exitY=0.5;exitDx=0;exitDy=0;entryX=0;entryY=0.5;entryDx=0;entryDy=0;" edge="1" parent="1" target="deEBS5y4V0Ay9wddRl7g-5">
          <mxGeometry width="50" height="50" relative="1" as="geometry">
            <mxPoint x="320" y="360" as="sourcePoint" />
            <mxPoint x="440" y="190" as="targetPoint" />
          </mxGeometry>
        </mxCell>
        <mxCell id="deEBS5y4V0Ay9wddRl7g-22" value="" style="endArrow=classic;html=1;rounded=0;entryX=0;entryY=0.5;entryDx=0;entryDy=0;strokeColor=light-dark(#ff0000, #ededed);" edge="1" parent="1" target="deEBS5y4V0Ay9wddRl7g-6">
          <mxGeometry width="50" height="50" relative="1" as="geometry">
            <mxPoint x="320" y="360" as="sourcePoint" />
            <mxPoint x="350" y="290" as="targetPoint" />
          </mxGeometry>
        </mxCell>
        <mxCell id="deEBS5y4V0Ay9wddRl7g-23" value="" style="endArrow=classic;html=1;rounded=0;entryX=0;entryY=0.5;entryDx=0;entryDy=0;" edge="1" parent="1" target="deEBS5y4V0Ay9wddRl7g-7">
          <mxGeometry width="50" height="50" relative="1" as="geometry">
            <mxPoint x="320" y="360" as="sourcePoint" />
            <mxPoint x="350" y="390" as="targetPoint" />
          </mxGeometry>
        </mxCell>
        <mxCell id="deEBS5y4V0Ay9wddRl7g-24" value="" style="endArrow=classic;html=1;rounded=0;entryX=0;entryY=0.5;entryDx=0;entryDy=0;" edge="1" parent="1" target="deEBS5y4V0Ay9wddRl7g-8">
          <mxGeometry width="50" height="50" relative="1" as="geometry">
            <mxPoint x="320" y="360" as="sourcePoint" />
            <mxPoint x="350" y="520" as="targetPoint" />
          </mxGeometry>
        </mxCell>
        <mxCell id="deEBS5y4V0Ay9wddRl7g-25" style="edgeStyle=orthogonalEdgeStyle;rounded=0;orthogonalLoop=1;jettySize=auto;html=1;entryX=-0.011;entryY=0.923;entryDx=0;entryDy=0;entryPerimeter=0;" edge="1" parent="1" source="deEBS5y4V0Ay9wddRl7g-16" target="deEBS5y4V0Ay9wddRl7g-4">
          <mxGeometry relative="1" as="geometry">
            <Array as="points">
              <mxPoint x="260" y="640" />
            </Array>
          </mxGeometry>
        </mxCell>
        <mxCell id="deEBS5y4V0Ay9wddRl7g-28" value="Send to the DAW what is send to the current device" style="edgeLabel;html=1;align=center;verticalAlign=middle;resizable=0;points=[];spacingTop=22;" vertex="1" connectable="0" parent="deEBS5y4V0Ay9wddRl7g-25">
          <mxGeometry x="0.2413" relative="1" as="geometry">
            <mxPoint as="offset" />
          </mxGeometry>
        </mxCell>
        <mxCell id="deEBS5y4V0Ay9wddRl7g-40" value="" style="endArrow=classic;html=1;rounded=0;exitX=1;exitY=0.5;exitDx=0;exitDy=0;" edge="1" parent="1" source="deEBS5y4V0Ay9wddRl7g-42">
          <mxGeometry width="50" height="50" relative="1" as="geometry">
            <mxPoint x="280" y="770" as="sourcePoint" />
            <mxPoint x="480" y="758" as="targetPoint" />
          </mxGeometry>
        </mxCell>
        <mxCell id="deEBS5y4V0Ay9wddRl7g-41" value="translated CC/NRPN or SYSEX" style="edgeLabel;html=1;align=center;verticalAlign=middle;resizable=0;points=[];spacingTop=-17;" vertex="1" connectable="0" parent="deEBS5y4V0Ay9wddRl7g-40">
          <mxGeometry x="-0.0648" y="2" relative="1" as="geometry">
            <mxPoint as="offset" />
          </mxGeometry>
        </mxCell>
        <mxCell id="deEBS5y4V0Ay9wddRl7g-42" value="Translator" style="rounded=1;whiteSpace=wrap;html=1;" vertex="1" parent="1">
          <mxGeometry x="210" y="740" width="72" height="36" as="geometry" />
        </mxCell>
        <mxCell id="deEBS5y4V0Ay9wddRl7g-43" value="" style="endArrow=classic;html=1;rounded=0;entryX=0;entryY=0.5;entryDx=0;entryDy=0;" edge="1" parent="1" target="deEBS5y4V0Ay9wddRl7g-42">
          <mxGeometry width="50" height="50" relative="1" as="geometry">
            <mxPoint y="758" as="sourcePoint" />
            <mxPoint x="100" y="769.58" as="targetPoint" />
          </mxGeometry>
        </mxCell>
        <mxCell id="deEBS5y4V0Ay9wddRl7g-44" value="incoming CC/NRPN" style="edgeLabel;html=1;align=center;verticalAlign=middle;resizable=0;points=[];spacingTop=-17;" vertex="1" connectable="0" parent="deEBS5y4V0Ay9wddRl7g-43">
          <mxGeometry x="-0.0648" y="2" relative="1" as="geometry">
            <mxPoint x="18" y="2" as="offset" />
          </mxGeometry>
        </mxCell>
        <mxCell id="deEBS5y4V0Ay9wddRl7g-53" value="Any Arrow can transform the MIDI stream using a translator" style="text;html=1;align=left;verticalAlign=middle;whiteSpace=wrap;rounded=0;" vertex="1" parent="1">
          <mxGeometry y="690" width="210" height="30" as="geometry" />
        </mxCell>
        <mxCell id="deEBS5y4V0Ay9wddRl7g-54" value="&lt;font style=&quot;font-size: 25px;&quot;&gt;Routing inside Midi Preset Manager (MPM)&lt;/font&gt;" style="text;html=1;align=center;verticalAlign=middle;whiteSpace=wrap;rounded=0;" vertex="1" parent="1">
          <mxGeometry x="90" y="30" width="670" height="30" as="geometry" />
        </mxCell>
      </root>
    </mxGraphModel>
  </diagram>
</mxfile>
